# xmcd CD database file
#
# Track frame offsets:
#	150
#	22597
#	40552
#	61337
#	74497
#	96412
#	114555
#	139562
#	154835
#	169422
#
# Disc length: 2602 seconds
#
# Revision: 0
# Processed by: cddbd v1.5.2PL0 Copyright (c) Steve Scherf et al.
# Submitted via: CDex 1.70beta2
#
DISCID=7f0a280a
DTITLE=やしきたかじん - Till Now
DYEAR=1981
DGENRE=Blues
TTITLE0=砂の十字架
TTITLE1=ゆめいらんかね
TTITLE2=ながばなし
TTITLE3=近頃の人生
TTITLE4=過ぎゆく暮し
TTITLE5=秋の手紙
TTITLE6=今宵
TTITLE7=Walking On
TTITLE8=ミナの物語
TTITLE9=明日になれば
EXTD=YEAR: 1981
EXTT0=
EXTT1=
EXTT2=
EXTT3=
EXTT4=
EXTT5=
EXTT6=
EXTT7=
EXTT8=
EXTT9=
PLAYORDER=
